<svg aria-hidden="true" style="position: absolute; width: 0; height: 0; overflow: hidden;" version="1.1"
    xmlns="http://www.w3.org/2000/svg" xmlns:xlink="http://www.w3.org/1999/xlink">
    <defs>

        <symbol id="icon-users" viewBox="0 0 20 20">
           <path d="M5.66666 15.0833H2.91666C2.74999 15.0833 2.66666 15 2.58333 14.9167C2.49999 14.8333 2.41666 14.6667 2.49999 14.5C2.99999 13.0833 4.24999 12.25 5.66666 12.25C7.41666 12.25 8.83333 10.75 8.83333 9.00001C8.83333 7.25001 7.41666 5.58334 5.66666 5.58334C3.91666 5.58334 2.49999 7.08334 2.49999 8.91668C2.49999 9.75001 2.83333 10.5833 3.33333 11.1667C2.24999 11.75 1.41666 12.6667 0.91666 13.9167C0.749994 14.5 0.833327 15.25 1.24999 15.8333C1.66666 16.4167 2.24999 16.75 2.91666 16.75H5.66666C6.16666 16.75 6.49999 16.4167 6.49999 15.9167C6.49999 15.4167 6.16666 15.0833 5.66666 15.0833ZM4.16666 8.91668C4.16666 8.00001 4.83333 7.33334 5.66666 7.33334C6.49999 7.33334 7.16666 8.08334 7.16666 8.91668C7.16666 9.83334 6.49999 10.5 5.66666 10.5C4.83333 10.5 4.16666 9.75001 4.16666 8.91668Z" fill="#101828"/>
           <path d="M19.0833 13.4167C18.5 11.8333 17.3333 10.6667 16 10C16.75 9.33335 17.1666 8.33335 17.1666 7.16668C17.1666 5.00002 15.5 3.25002 13.5 3.25002C11.5 3.25002 9.83331 5.00002 9.83331 7.16668C9.83331 8.25002 10.25 9.25002 11 10C9.66664 10.6667 8.49998 11.8333 7.91664 13.4167C7.49998 14.1667 7.66664 15 8.08331 15.6667C8.49998 16.3333 9.24998 16.6667 9.99998 16.6667H16.9166C17.6666 16.6667 18.4166 16.25 18.8333 15.6667C19.3333 15 19.4166 14.1667 19.0833 13.4167ZM11.4166 7.25002C11.4166 6.00002 12.3333 5.00002 13.4166 5.00002C14.5 5.00002 15.4166 6.00002 15.4166 7.25002C15.4166 8.50001 14.5 9.50002 13.4166 9.50002C12.3333 9.50002 11.4166 8.41668 11.4166 7.25002ZM17.4166 14.75C17.3333 14.8333 17.1666 15.0833 16.9166 15.0833H9.99998C9.66664 15.0833 9.49998 14.8333 9.49998 14.75C9.41664 14.6667 9.24998 14.3333 9.41665 14C10.0833 12.25 11.75 11.0833 13.5 11.0833C15.25 11.0833 16.9166 12.25 17.5833 14C17.6666 14.3333 17.5 14.6667 17.4166 14.75Z" fill="#101828"/>
        </symbol>
        
        <symbol id="icon-close" viewBox="0 0 32 32">
            <path d="M24 8L8 24" stroke="#101828" stroke-width="3" stroke-linecap="round" stroke-linejoin="round"/>
            <path d="M8 8L24 24" stroke="#101828" stroke-width="3" stroke-linecap="round" stroke-linejoin="round"/>
        </symbol>

        <symbol id="icon-automatic" viewBox="0 0 20 20" fill="none">
            <path d="M14.1667 9.16667H15.4167C15.7482 9.16667 16.0661 9.03497 16.3006 8.80055C16.535 8.56613 16.6667 8.24819 16.6667 7.91667C16.6667 7.58515 16.535 7.2672 16.3006 7.03278C16.0661 6.79836 15.7482 6.66667 15.4167 6.66667H14.1667V10.8333M14.1667 14.1667V17.5H15C15.442 17.5 15.866 17.3244 16.1785 17.0118C16.4911 16.6993 16.6667 16.2754 16.6667 15.8333C16.6667 15.3913 16.4911 14.9674 16.1785 14.6548C15.866 14.3423 15.442 14.1667 15 14.1667H14.1667ZM2.5 4.16667C2.5 4.60869 2.67559 5.03262 2.98816 5.34518C3.30072 5.65774 3.72464 5.83333 4.16667 5.83333C4.60869 5.83333 5.03262 5.65774 5.34518 5.34518C5.65774 5.03262 5.83333 4.60869 5.83333 4.16667C5.83333 3.72464 5.65774 3.30072 5.34518 2.98816C5.03262 2.67559 4.60869 2.5 4.16667 2.5C3.72464 2.5 3.30072 2.67559 2.98816 2.98816C2.67559 3.30072 2.5 3.72464 2.5 4.16667Z" stroke="#101828" stroke-width="1.5" stroke-linecap="round" stroke-linejoin="round"/>
            <path d="M4.16675 5.83333V8.33333C4.16675 8.55434 4.25455 8.7663 4.41083 8.92258C4.56711 9.07886 4.77907 9.16666 5.00008 9.16666H7.50008M7.50008 9.16666V15C7.50008 15.221 7.58788 15.433 7.74416 15.5893C7.90044 15.7455 8.1124 15.8333 8.33341 15.8333H10.8334M7.50008 9.16666H10.8334" stroke="#101828" stroke-width="1.5" stroke-linecap="round" stroke-linejoin="round"/>
        </symbol>

        <symbol id="icon-petrol" viewBox="0 0 20 20" fill="none">
           <path d="M16.4749 6.025L16.4833 6.01667L13.3833 2.91667L12.4999 3.8L14.2583 5.55833C13.4749 5.85833 12.9166 6.60833 12.9166 7.5C12.9166 7.77359 12.9705 8.0445 13.0752 8.29726C13.1799 8.55002 13.3333 8.77968 13.5268 8.97314C13.9175 9.36384 14.4474 9.58333 14.9999 9.58333C15.2999 9.58333 15.5749 9.51667 15.8333 9.40833V15.4167C15.8333 15.6377 15.7455 15.8496 15.5892 16.0059C15.4329 16.1622 15.2209 16.25 14.9999 16.25C14.7789 16.25 14.5669 16.1622 14.4107 16.0059C14.2544 15.8496 14.1666 15.6377 14.1666 15.4167V11.6667C14.1666 11.2246 13.991 10.8007 13.6784 10.4882C13.3659 10.1756 12.9419 10 12.4999 10H11.6666V4.16667C11.6666 3.72464 11.491 3.30072 11.1784 2.98816C10.8659 2.67559 10.4419 2.5 9.99992 2.5H4.99992C4.55789 2.5 4.13397 2.67559 3.82141 2.98816C3.50885 3.30072 3.33325 3.72464 3.33325 4.16667V17.5H11.6666V11.25H12.9166V15.4167C12.9166 15.9692 13.1361 16.4991 13.5268 16.8898C13.9175 17.2805 14.4474 17.5 14.9999 17.5C15.2735 17.5 15.5444 17.4461 15.7972 17.3414C16.0499 17.2367 16.2796 17.0833 16.4731 16.8898C16.6665 16.6964 16.82 16.4667 16.9247 16.2139C17.0294 15.9612 17.0833 15.6903 17.0833 15.4167V7.5C17.0833 6.925 16.8499 6.4 16.4749 6.025ZM9.99992 11.25V15.8333H4.99992V10H9.99992V11.25ZM9.99992 8.33333H4.99992V4.16667H9.99992V8.33333ZM14.9999 8.33333C14.7789 8.33333 14.5669 8.24554 14.4107 8.08926C14.2544 7.93297 14.1666 7.72101 14.1666 7.5C14.1666 7.27899 14.2544 7.06702 14.4107 6.91074C14.5669 6.75446 14.7789 6.66667 14.9999 6.66667C15.2209 6.66667 15.4329 6.75446 15.5892 6.91074C15.7455 7.06702 15.8333 7.27899 15.8333 7.5C15.8333 7.72101 15.7455 7.93297 15.5892 8.08926C15.4329 8.24554 15.2209 8.33333 14.9999 8.33333Z" fill="#101828"/>
        </symbol>

        <symbol id="icon-kitchen" viewBox="0 0 20 20" fill="none">
            <path d="M15.8334 12.5V2.5C11.8201 6.32833 11.6476 9.4325 11.6667 12.5H15.8334ZM15.8334 12.5V17.5H15.0001V15M6.66675 3.33333V17.5M4.16675 3.33333V5.83333C4.16675 6.49637 4.43014 7.13226 4.89898 7.6011C5.36782 8.06994 6.00371 8.33333 6.66675 8.33333C7.32979 8.33333 7.96567 8.06994 8.43452 7.6011C8.90336 7.13226 9.16675 6.49637 9.16675 5.83333V3.33333" stroke="#101828" stroke-width="1.5" stroke-linecap="round" stroke-linejoin="round"/>
        </symbol>

        <symbol id="icon-bed" viewBox="0 0 20 20" fill="none">
            <path d="M1.875 16.25V11.875C1.87696 11.2126 2.14098 10.5778 2.6094 10.1094C3.07781 9.64098 3.71256 9.37696 4.375 9.375H15.625C16.2874 9.37696 16.9222 9.64098 17.3906 10.1094C17.859 10.5778 18.123 11.2126 18.125 11.875V16.25M15 9.375H3.75V5.3125C3.75124 4.89848 3.91625 4.50177 4.20901 4.20901C4.50177 3.91625 4.89848 3.75124 5.3125 3.75H14.6875C15.1015 3.75124 15.4982 3.91625 15.791 4.20901C16.0837 4.50177 16.2488 4.89848 16.25 5.3125V9.375H15Z" stroke="#101828" stroke-width="1.4" stroke-linecap="round" stroke-linejoin="round"/>
            <path d="M1.875 16.25V15.9375C1.87572 15.6891 1.97473 15.451 2.15038 15.2754C2.32604 15.0997 2.56408 15.0007 2.8125 15H17.1875C17.4359 15.0007 17.674 15.0997 17.8496 15.2754C18.0253 15.451 18.1243 15.6891 18.125 15.9375V16.25M4.375 9.375V8.75C4.37593 8.41876 4.50792 8.10136 4.74214 7.86714C4.97636 7.63292 5.29376 7.50093 5.625 7.5H8.75C9.08124 7.50093 9.39864 7.63292 9.63286 7.86714C9.86708 8.10136 9.99907 8.41876 10 8.75M10 8.75V9.375M10 8.75C10.0009 8.41876 10.1329 8.10136 10.3671 7.86714C10.6014 7.63292 10.9188 7.50093 11.25 7.5H14.375C14.7062 7.50093 15.0236 7.63292 15.2579 7.86714C15.4921 8.10136 15.6241 8.41876 15.625 8.75V9.375" stroke="#101828" stroke-width="1.4" stroke-linecap="round" stroke-linejoin="round"/>
        </symbol>

                <symbol id="icon-automatic" viewBox="0 0 20 20" fill="none">
            <path d="M14.1667 9.16667H15.4167C15.7482 9.16667 16.0661 9.03497 16.3006 8.80055C16.535 8.56613 16.6667 8.24819 16.6667 7.91667C16.6667 7.58515 16.535 7.2672 16.3006 7.03278C16.0661 6.79836 15.7482 6.66667 15.4167 6.66667H14.1667V10.8333M14.1667 14.1667V17.5H15C15.442 17.5 15.866 17.3244 16.1785 17.0118C16.4911 16.6993 16.6667 16.2754 16.6667 15.8333C16.6667 15.3913 16.4911 14.9674 16.1785 14.6548C15.866 14.3423 15.442 14.1667 15 14.1667H14.1667ZM2.5 4.16667C2.5 4.60869 2.67559 5.03262 2.98816 5.34518C3.30072 5.65774 3.72464 5.83333 4.16667 5.83333C4.60869 5.83333 5.03262 5.65774 5.34518 5.34518C5.65774 5.03262 5.83333 4.60869 5.83333 4.16667C5.83333 3.72464 5.65774 3.30072 5.34518 2.98816C5.03262 2.67559 4.60869 2.5 4.16667 2.5C3.72464 2.5 3.30072 2.67559 2.98816 2.98816C2.67559 3.30072 2.5 3.72464 2.5 4.16667Z" stroke="#101828" stroke-width="1.5" stroke-linecap="round" stroke-linejoin="round"/>
            <path d="M4.16675 5.83333V8.33333C4.16675 8.55434 4.25455 8.7663 4.41083 8.92258C4.56711 9.07886 4.77907 9.16666 5.00008 9.16666H7.50008M7.50008 9.16666V15C7.50008 15.221 7.58788 15.433 7.74416 15.5893C7.90044 15.7455 8.1124 15.8333 8.33341 15.8333H10.8334M7.50008 9.16666H10.8334" stroke="#101828" stroke-width="1.5" stroke-linecap="round" stroke-linejoin="round"/>
        </symbol>

                <symbol id="icon-automatic" viewBox="0 0 20 20" fill="none">
            <path d="M14.1667 9.16667H15.4167C15.7482 9.16667 16.0661 9.03497 16.3006 8.80055C16.535 8.56613 16.6667 8.24819 16.6667 7.91667C16.6667 7.58515 16.535 7.2672 16.3006 7.03278C16.0661 6.79836 15.7482 6.66667 15.4167 6.66667H14.1667V10.8333M14.1667 14.1667V17.5H15C15.442 17.5 15.866 17.3244 16.1785 17.0118C16.4911 16.6993 16.6667 16.2754 16.6667 15.8333C16.6667 15.3913 16.4911 14.9674 16.1785 14.6548C15.866 14.3423 15.442 14.1667 15 14.1667H14.1667ZM2.5 4.16667C2.5 4.60869 2.67559 5.03262 2.98816 5.34518C3.30072 5.65774 3.72464 5.83333 4.16667 5.83333C4.60869 5.83333 5.03262 5.65774 5.34518 5.34518C5.65774 5.03262 5.83333 4.60869 5.83333 4.16667C5.83333 3.72464 5.65774 3.30072 5.34518 2.98816C5.03262 2.67559 4.60869 2.5 4.16667 2.5C3.72464 2.5 3.30072 2.67559 2.98816 2.98816C2.67559 3.30072 2.5 3.72464 2.5 4.16667Z" stroke="#101828" stroke-width="1.5" stroke-linecap="round" stroke-linejoin="round"/>
            <path d="M4.16675 5.83333V8.33333C4.16675 8.55434 4.25455 8.7663 4.41083 8.92258C4.56711 9.07886 4.77907 9.16666 5.00008 9.16666H7.50008M7.50008 9.16666V15C7.50008 15.221 7.58788 15.433 7.74416 15.5893C7.90044 15.7455 8.1124 15.8333 8.33341 15.8333H10.8334M7.50008 9.16666H10.8334" stroke="#101828" stroke-width="1.5" stroke-linecap="round" stroke-linejoin="round"/>
        </symbol>

                <symbol id="icon-automatic" viewBox="0 0 20 20" fill="none">
            <path d="M14.1667 9.16667H15.4167C15.7482 9.16667 16.0661 9.03497 16.3006 8.80055C16.535 8.56613 16.6667 8.24819 16.6667 7.91667C16.6667 7.58515 16.535 7.2672 16.3006 7.03278C16.0661 6.79836 15.7482 6.66667 15.4167 6.66667H14.1667V10.8333M14.1667 14.1667V17.5H15C15.442 17.5 15.866 17.3244 16.1785 17.0118C16.4911 16.6993 16.6667 16.2754 16.6667 15.8333C16.6667 15.3913 16.4911 14.9674 16.1785 14.6548C15.866 14.3423 15.442 14.1667 15 14.1667H14.1667ZM2.5 4.16667C2.5 4.60869 2.67559 5.03262 2.98816 5.34518C3.30072 5.65774 3.72464 5.83333 4.16667 5.83333C4.60869 5.83333 5.03262 5.65774 5.34518 5.34518C5.65774 5.03262 5.83333 4.60869 5.83333 4.16667C5.83333 3.72464 5.65774 3.30072 5.34518 2.98816C5.03262 2.67559 4.60869 2.5 4.16667 2.5C3.72464 2.5 3.30072 2.67559 2.98816 2.98816C2.67559 3.30072 2.5 3.72464 2.5 4.16667Z" stroke="#101828" stroke-width="1.5" stroke-linecap="round" stroke-linejoin="round"/>
            <path d="M4.16675 5.83333V8.33333C4.16675 8.55434 4.25455 8.7663 4.41083 8.92258C4.56711 9.07886 4.77907 9.16666 5.00008 9.16666H7.50008M7.50008 9.16666V15C7.50008 15.221 7.58788 15.433 7.74416 15.5893C7.90044 15.7455 8.1124 15.8333 8.33341 15.8333H10.8334M7.50008 9.16666H10.8334" stroke="#101828" stroke-width="1.5" stroke-linecap="round" stroke-linejoin="round"/>
        </symbol>

                <symbol id="icon-automatic" viewBox="0 0 20 20" fill="none">
            <path d="M14.1667 9.16667H15.4167C15.7482 9.16667 16.0661 9.03497 16.3006 8.80055C16.535 8.56613 16.6667 8.24819 16.6667 7.91667C16.6667 7.58515 16.535 7.2672 16.3006 7.03278C16.0661 6.79836 15.7482 6.66667 15.4167 6.66667H14.1667V10.8333M14.1667 14.1667V17.5H15C15.442 17.5 15.866 17.3244 16.1785 17.0118C16.4911 16.6993 16.6667 16.2754 16.6667 15.8333C16.6667 15.3913 16.4911 14.9674 16.1785 14.6548C15.866 14.3423 15.442 14.1667 15 14.1667H14.1667ZM2.5 4.16667C2.5 4.60869 2.67559 5.03262 2.98816 5.34518C3.30072 5.65774 3.72464 5.83333 4.16667 5.83333C4.60869 5.83333 5.03262 5.65774 5.34518 5.34518C5.65774 5.03262 5.83333 4.60869 5.83333 4.16667C5.83333 3.72464 5.65774 3.30072 5.34518 2.98816C5.03262 2.67559 4.60869 2.5 4.16667 2.5C3.72464 2.5 3.30072 2.67559 2.98816 2.98816C2.67559 3.30072 2.5 3.72464 2.5 4.16667Z" stroke="#101828" stroke-width="1.5" stroke-linecap="round" stroke-linejoin="round"/>
            <path d="M4.16675 5.83333V8.33333C4.16675 8.55434 4.25455 8.7663 4.41083 8.92258C4.56711 9.07886 4.77907 9.16666 5.00008 9.16666H7.50008M7.50008 9.16666V15C7.50008 15.221 7.58788 15.433 7.74416 15.5893C7.90044 15.7455 8.1124 15.8333 8.33341 15.8333H10.8334M7.50008 9.16666H10.8334" stroke="#101828" stroke-width="1.5" stroke-linecap="round" stroke-linejoin="round"/>
        </symbol>

                <symbol id="icon-automatic" viewBox="0 0 20 20" fill="none">
            <path d="M14.1667 9.16667H15.4167C15.7482 9.16667 16.0661 9.03497 16.3006 8.80055C16.535 8.56613 16.6667 8.24819 16.6667 7.91667C16.6667 7.58515 16.535 7.2672 16.3006 7.03278C16.0661 6.79836 15.7482 6.66667 15.4167 6.66667H14.1667V10.8333M14.1667 14.1667V17.5H15C15.442 17.5 15.866 17.3244 16.1785 17.0118C16.4911 16.6993 16.6667 16.2754 16.6667 15.8333C16.6667 15.3913 16.4911 14.9674 16.1785 14.6548C15.866 14.3423 15.442 14.1667 15 14.1667H14.1667ZM2.5 4.16667C2.5 4.60869 2.67559 5.03262 2.98816 5.34518C3.30072 5.65774 3.72464 5.83333 4.16667 5.83333C4.60869 5.83333 5.03262 5.65774 5.34518 5.34518C5.65774 5.03262 5.83333 4.60869 5.83333 4.16667C5.83333 3.72464 5.65774 3.30072 5.34518 2.98816C5.03262 2.67559 4.60869 2.5 4.16667 2.5C3.72464 2.5 3.30072 2.67559 2.98816 2.98816C2.67559 3.30072 2.5 3.72464 2.5 4.16667Z" stroke="#101828" stroke-width="1.5" stroke-linecap="round" stroke-linejoin="round"/>
            <path d="M4.16675 5.83333V8.33333C4.16675 8.55434 4.25455 8.7663 4.41083 8.92258C4.56711 9.07886 4.77907 9.16666 5.00008 9.16666H7.50008M7.50008 9.16666V15C7.50008 15.221 7.58788 15.433 7.74416 15.5893C7.90044 15.7455 8.1124 15.8333 8.33341 15.8333H10.8334M7.50008 9.16666H10.8334" stroke="#101828" stroke-width="1.5" stroke-linecap="round" stroke-linejoin="round"/>
        </symbol>

                <symbol id="icon-automatic" viewBox="0 0 20 20" fill="none">
            <path d="M14.1667 9.16667H15.4167C15.7482 9.16667 16.0661 9.03497 16.3006 8.80055C16.535 8.56613 16.6667 8.24819 16.6667 7.91667C16.6667 7.58515 16.535 7.2672 16.3006 7.03278C16.0661 6.79836 15.7482 6.66667 15.4167 6.66667H14.1667V10.8333M14.1667 14.1667V17.5H15C15.442 17.5 15.866 17.3244 16.1785 17.0118C16.4911 16.6993 16.6667 16.2754 16.6667 15.8333C16.6667 15.3913 16.4911 14.9674 16.1785 14.6548C15.866 14.3423 15.442 14.1667 15 14.1667H14.1667ZM2.5 4.16667C2.5 4.60869 2.67559 5.03262 2.98816 5.34518C3.30072 5.65774 3.72464 5.83333 4.16667 5.83333C4.60869 5.83333 5.03262 5.65774 5.34518 5.34518C5.65774 5.03262 5.83333 4.60869 5.83333 4.16667C5.83333 3.72464 5.65774 3.30072 5.34518 2.98816C5.03262 2.67559 4.60869 2.5 4.16667 2.5C3.72464 2.5 3.30072 2.67559 2.98816 2.98816C2.67559 3.30072 2.5 3.72464 2.5 4.16667Z" stroke="#101828" stroke-width="1.5" stroke-linecap="round" stroke-linejoin="round"/>
            <path d="M4.16675 5.83333V8.33333C4.16675 8.55434 4.25455 8.7663 4.41083 8.92258C4.56711 9.07886 4.77907 9.16666 5.00008 9.16666H7.50008M7.50008 9.16666V15C7.50008 15.221 7.58788 15.433 7.74416 15.5893C7.90044 15.7455 8.1124 15.8333 8.33341 15.8333H10.8334M7.50008 9.16666H10.8334" stroke="#101828" stroke-width="1.5" stroke-linecap="round" stroke-linejoin="round"/>
        </symbol>




        <symbol id="icon-chevron-right" viewBox="0 0 32 32">
            <path stroke-linejoin="round" stroke-linecap="round" stroke-miterlimit="4" stroke-width="2"
                d="M12 24l8-8-8-8"></path>
        </symbol>
        <symbol id="icon-chevron-left" viewBox="0 0 32 32">
            <path stroke-linejoin="round" stroke-linecap="round" stroke-miterlimit="4" stroke-width="2"
                d="M20 24l-8-8 8-8"></path>
        </symbol>
        <symbol id="icon-paginator-chevron-left" viewBox="0 0 32 32">
            <path
                d="M14.133 16.947c-0.125-0.124-0.224-0.271-0.292-0.434s-0.103-0.337-0.103-0.513 0.035-0.35 0.103-0.513c0.068-0.162 0.167-0.31 0.292-0.434l6.12-6.107c0.125-0.124 0.224-0.271 0.292-0.434s0.103-0.337 0.103-0.513-0.035-0.35-0.103-0.513c-0.068-0.162-0.167-0.31-0.292-0.434-0.25-0.248-0.588-0.388-0.94-0.388s-0.69 0.139-0.94 0.388l-6.12 6.12c-0.749 0.75-1.17 1.767-1.17 2.827s0.421 2.077 1.17 2.827l6.12 6.12c0.248 0.246 0.584 0.385 0.933 0.387 0.175 0.001 0.349-0.033 0.512-0.099s0.31-0.164 0.435-0.288c0.125-0.124 0.224-0.271 0.292-0.434s0.103-0.337 0.103-0.513-0.035-0.35-0.103-0.513c-0.068-0.163-0.167-0.31-0.292-0.434l-6.12-6.107z">
            </path>
        </symbol>
        <symbol id="icon-paginator-chevron-right" viewBox="0 0 32 32">
            <path
                d="M17.867 16.947c0.125-0.124 0.224-0.271 0.292-0.434s0.103-0.337 0.103-0.513-0.035-0.35-0.103-0.513c-0.068-0.162-0.167-0.31-0.292-0.434l-6.12-6.107c-0.125-0.124-0.224-0.271-0.292-0.434s-0.103-0.337-0.103-0.513c0-0.176 0.035-0.35 0.103-0.513s0.167-0.31 0.292-0.434c0.25-0.248 0.588-0.388 0.94-0.388s0.69 0.139 0.94 0.388l6.12 6.12c0.749 0.75 1.17 1.767 1.17 2.827s-0.421 2.077-1.17 2.827l-6.12 6.12c-0.248 0.246-0.584 0.385-0.933 0.387-0.175 0.001-0.349-0.033-0.512-0.099s-0.31-0.164-0.435-0.288c-0.125-0.124-0.224-0.271-0.292-0.434s-0.103-0.337-0.103-0.513c0-0.176 0.035-0.35 0.103-0.513s0.167-0.31 0.292-0.434l6.12-6.107z">
            </path>
        </symbol>
        
         <symbol id="icon-star" viewBox="0 0 8 8">
            <path d="M4 6.02482L5.45496 6.94559C5.72141 7.11434 6.04746 6.86489 5.97734 6.5494L5.59169 4.81791L6.87836 3.65135C7.11326 3.43858 6.98704 3.03506 6.67852 3.00938L4.98516 2.85897L4.32254 1.22286C4.20334 0.925714 3.79666 0.925714 3.67746 1.22286L3.01484 2.8553L1.32148 3.00571C1.01296 3.03139 0.886744 3.43491 1.12164 3.64768L2.40831 4.81424L2.02266 6.54573C1.95254 6.86122 2.27859 7.11067 2.54504 6.94192L4 6.02482Z" fill="#ffc531"/>
         </symbol>
        

    </defs>
</svg>
